<?xml version="1.0" standalone="no"?><!DOCTYPE svg PUBLIC "-//W3C//DTD SVG 1.1//EN"
    "http://www.w3.org/Graphics/SVG/1.1/DTD/svg11.dtd">
<svg t="1605001953480" class="icon" viewBox="0 0 1024 1024" version="1.1"
    xmlns="http://www.w3.org/2000/svg" p-id="2896" xmlns:xlink="http://www.w3.org/1999/xlink"
    width="200" height="200">
    <defs>
        <style type="text/css"></style>
    </defs>
    <path
        d="M512 898.844444A386.844444 386.844444 0 1 1 512 125.155556a386.844444 386.844444 0 0 1 0 773.688888z m0-56.888888A329.955556 329.955556 0 1 0 512 182.044444a329.955556 329.955556 0 0 0 0 659.911112z"
        p-id="2897" fill="#1296db"></path>
    <path
        d="M526.222222 503.239111l80.725334 69.518222a27.306667 27.306667 0 0 1 2.104888 39.367111l-0.739555 0.796445a28.444444 28.444444 0 0 1-39.367111 2.161778L486.570667 544.085333a28.444444 28.444444 0 0 1-17.237334-26.168889v-128.568888a28.444444 28.444444 0 0 1 56.888889 0v113.891555z"
        p-id="2898" fill="#1296db"></path>
</svg>